# xmcd
#
# Track frame offsets: 
#        150
#        19670
#        37992
#        55918
#        73691
#        90944
#        123779
#        142749
#        163801
#        182626
#        200969
#        223242
#        242443
#
# Disc length: 3484 seconds
#
# Revision: 0
# Processed by: cddbd v1.5.2PL0 Copyright (c) Steve Scherf et al.
# Submitted via: ExactAudioCopyFreeDBPlugin 1.0
#
DISCID=b00d9a0d
DTITLE=Eric Burdon and The War - 1995 - The Best Of
DYEAR=1995
DGENRE=
TTITLE0=Magic Mountain
TTITLE1=Spill The Wine
TTITLE2=Tobacco Road
TTITLE3=Mother Earth
TTITLE4=Love Is All Around
TTITLE5=Home Dream
TTITLE6=Bare Back Ride
TTITLE7=Nights In White Satin
TTITLE8=Beautiful New Born Child
TTITLE9=Paint It Black
TTITLE10=They Can't Take Away Our Music
TTITLE11=Gun
TTITLE12=Home Cookin'
EXTD=
EXTT0=
EXTT1=
EXTT2=
EXTT3=
EXTT4=
EXTT5=
EXTT6=
EXTT7=
EXTT8=
EXTT9=
EXTT10=
EXTT11=
EXTT12=
PLAYORDER=
